<?xml version="1.0" encoding="utf-8"?>
<!-- Generator: Adobe Illustrator 16.0.0, SVG Export Plug-In . SVG Version: 6.00 Build 0)  -->
<!DOCTYPE svg PUBLIC "-//W3C//DTD SVG 1.1//EN" "http://www.w3.org/Graphics/SVG/1.1/DTD/svg11.dtd">
<svg version="1.1" id="Layer_1" xmlns="http://www.w3.org/2000/svg" xmlns:xlink="http://www.w3.org/1999/xlink" x="0px" y="0px"
	 width="1389.78px" height="234.216px" viewBox="0 0 1389.78 234.216" enable-background="new 0 0 1389.78 234.216"
	 xml:space="preserve">
<g>
	<path fill="#FFFFFF" d="M607.989,155.119c0-16.284-7.462-31.562-25.117-35.297c17.998-4.412,24.1-16.626,24.1-35.984V49.557
		c0-31.217-16.284-45.478-45.137-45.478h-55.328v226.057h28.51V131.02h25.458c13.234,0,19.347,8.834,19.347,22.407v36.245
		c0,28.483,4.757,40.464,4.757,40.464h31.226c0,0-7.816-10.322-7.816-42.753V155.119z M578.805,86.215
		c0,14.26-7.474,22.065-20.031,22.065h-23.757V29.537h26.476c12.216,0,17.312,7.13,17.312,19.004V86.215z"/>
	<rect y="4.08" fill="#FFFFFF" width="28.509" height="226.056"/>
	<polygon fill="#FFFFFF" points="167.634,156.479 153.726,118.131 109.261,4.08 85.162,4.08 85.162,230.136 111.973,230.136 
		111.973,79.77 126.908,117.789 174.089,230.136 194.452,230.136 194.452,4.08 167.634,4.08 	"/>
	<path fill="#FFFFFF" d="M302.913,106.921c-26.476-24.099-35.297-36.989-35.297-59.054c0-14.26,7.804-23.082,22.738-23.082
		c16.628,0,24.099,11.883,24.099,29.184v17.996h26.819V50.918C341.271,21.048,321.583,0,291.04,0
		c-33.606,0-51.26,23.083-51.26,53.296c0,29.526,22.739,55.669,43.444,73.999c23.082,20.705,31.573,35.972,31.573,57.02
		c0,15.609-8.148,26.133-24.785,26.133c-15.952,0-24.773-10.855-24.773-29.869v-17.644h-27.836v20.706
		c0,29.527,20.706,50.575,52.609,50.575c28.179,0,52.609-18.33,52.609-54.998C342.621,151.725,329.044,130.345,302.913,106.921z"/>
	<polygon fill="#FFFFFF" points="368.398,30.213 406.747,30.213 406.747,230.136 434.925,230.136 434.925,30.213 472.599,30.213 
		472.599,4.079 368.398,4.079 	"/>
	<path fill="#FFFFFF" d="M734.403,182.956c0,16.968-7.804,25.8-24.771,25.8c-16.639,0-24.773-8.832-24.773-25.8V4.08h-28.18V182.28
		c0,32.578,22.066,51.936,52.61,51.936c30.886,0,52.95-19.357,52.95-51.936V4.08h-27.836V182.956z"/>
	<polygon fill="#FFFFFF" points="894.334,144.263 887.215,185.674 879.742,144.605 854.296,4.08 814.232,4.08 814.232,230.136 
		839.35,230.136 839.35,56.688 846.822,97.757 872.623,230.136 899.773,230.136 925.564,97.757 933.038,56.688 933.038,230.136 
		958.827,230.136 958.827,4.08 919.463,4.08 	"/>
	<polygon fill="#FFFFFF" points="1010.819,230.136 1099.412,230.136 1099.412,204.346 1038.998,204.346 1038.998,124.919 
		1085.848,124.919 1085.848,100.133 1038.998,100.133 1038.998,29.869 1099.412,29.869 1099.412,4.08 1010.819,4.08 	"/>
	<polygon fill="#FFFFFF" points="1224.852,156.479 1210.935,118.131 1166.462,4.08 1142.361,4.08 1142.361,230.136 
		1169.181,230.136 1169.181,79.77 1184.115,117.789 1231.296,230.136 1251.67,230.136 1251.67,4.08 1224.852,4.08 	"/>
	<polygon fill="#FFFFFF" points="1285.578,4.079 1285.578,30.213 1323.936,30.213 1323.936,230.136 1352.103,230.136 
		1352.103,30.213 1389.778,30.213 1389.778,4.079 	"/>
</g>
</svg>
