<?xml version="1.0" encoding="utf-8"?>
<!-- Generator: Adobe Illustrator 16.0.0, SVG Export Plug-In . SVG Version: 6.00 Build 0)  -->
<!DOCTYPE svg PUBLIC "-//W3C//DTD SVG 1.1//EN" "http://www.w3.org/Graphics/SVG/1.1/DTD/svg11.dtd">
<svg version="1.1" id="Layer_1" xmlns="http://www.w3.org/2000/svg" xmlns:xlink="http://www.w3.org/1999/xlink" x="0px" y="0px"
	 width="51px" height="32px" viewBox="-0.001 -0.001 51 32" enable-background="new -0.001 -0.001 51 32" xml:space="preserve">
<g>
	<path d="M47.498,19h-6c-1.931,0-3.501,1.57-3.501,3.498v6c0,1.93,1.57,3.5,3.501,3.5h6c1.93,0,3.5-1.57,3.5-3.5v-6
		C50.998,20.57,49.428,19,47.498,19z M49.998,28.498c0,1.379-1.121,2.5-2.5,2.5h-6c-1.38,0-2.501-1.121-2.501-2.5v-6
		c0-1.377,1.121-2.498,2.501-2.498h6c1.379,0,2.5,1.121,2.5,2.498V28.498z"/>
	<path d="M9.499,19h-6c-1.93,0-3.5,1.57-3.5,3.498v6c0,1.93,1.57,3.5,3.5,3.5h6c1.931,0,3.5-1.57,3.5-3.5v-6
		C12.999,20.57,11.429,19,9.499,19z M11.999,28.498c0,1.379-1.12,2.5-2.5,2.5h-6c-1.379,0-2.5-1.121-2.5-2.5v-6
		c0-1.377,1.121-2.498,2.5-2.498h6c1.38,0,2.5,1.121,2.5,2.498V28.498z"/>
	<polygon points="25.498,27.482 28.482,24.498 22.514,24.498 	"/>
	<path d="M28.498,19h-6c-1.93,0-3.5,1.57-3.5,3.498v6c0,1.93,1.571,3.5,3.5,3.5h6c1.93,0,3.5-1.57,3.5-3.5v-6
		C31.998,20.57,30.428,19,28.498,19z M30.998,28.498c0,1.379-1.121,2.5-2.5,2.5h-6c-1.379,0-2.5-1.121-2.5-2.5v-6
		c0-1.377,1.121-2.498,2.5-2.498h6c1.379,0,2.5,1.121,2.5,2.498V28.498z"/>
	<polygon points="22.67,7.499 28.327,7.499 25.499,4.671 	"/>
	<path d="M28.498,0h-6c-1.93,0-3.5,1.57-3.5,3.499v6c0,1.93,1.571,3.5,3.5,3.5h6c1.93,0,3.5-1.57,3.5-3.5v-6
		C31.998,1.57,30.428,0,28.498,0z M30.998,9.499c0,1.379-1.121,2.5-2.5,2.5h-6c-1.379,0-2.5-1.121-2.5-2.5v-6
		c0-1.376,1.121-2.499,2.5-2.499h6c1.379,0,2.5,1.123,2.5,2.499V9.499z"/>
</g>
</svg>
