<?xml version="1.0" encoding="utf-8"?>
<!-- Generator: Adobe Illustrator 16.0.0, SVG Export Plug-In . SVG Version: 6.00 Build 0)  -->
<!DOCTYPE svg PUBLIC "-//W3C//DTD SVG 1.1//EN" "http://www.w3.org/Graphics/SVG/1.1/DTD/svg11.dtd">
<svg version="1.1" id="Layer_1" xmlns="http://www.w3.org/2000/svg" xmlns:xlink="http://www.w3.org/1999/xlink" x="0px" y="0px"
	 width="1098.05px" height="240.786px" viewBox="0 0 1098.05 240.786" enable-background="new 0 0 1098.05 240.786"
	 xml:space="preserve">
<g>
	<polygon fill="#FFFFFF" points="0,237.858 45.231,237.858 45.231,143.496 102.497,143.496 102.497,101.847 45.231,101.847 
		45.231,54.99 104.126,54.99 104.126,12.69 0,12.69 	"/>
	<path fill="#FFFFFF" d="M261.434,80.046c-10.086-11.389-29.935-19.198-51.41-19.198c-53.362,0-89.155,38.396-89.155,89.807
		c0,54.014,36.116,90.131,89.155,90.131c27.985,0,45.228-11.714,52.061-20.174v17.246h40.676V63.776h-41.327V80.046z
		 M212.626,202.066c-28.633,0-48.156-21.803-48.156-51.411c0-28.96,18.547-51.086,48.156-51.086
		c27.985,0,47.834,21.801,47.834,51.086C260.46,180.264,241.914,202.066,212.626,202.066z"/>
	<path fill="#FFFFFF" d="M499.586,61.824c-22.777,0-35.79,9.761-43.601,18.873c-7.811-11.064-20.825-18.873-41.324-18.873
		c-22.127,0-32.863,9.436-37.421,14.968V63.776h-43.601v174.083h43.601V128.854c0-17.247,8.134-28.31,23.756-28.31
		c15.291,0,23.102,11.063,23.102,27.657v109.656H467.7V128.202c0-15.618,7.808-27.657,23.425-27.657
		c15.622,0,23.43,10.738,23.43,27.657v109.656h43.6V122.997C558.154,89.482,542.539,61.824,499.586,61.824z"/>
	<path fill="#FFFFFF" d="M610.69,0.651c-14.315,0-26.027,11.714-26.027,26.357c0,14.316,11.712,25.704,26.027,25.704
		c14.643,0,26.032-11.388,26.032-25.704C636.723,12.365,625.333,0.651,610.69,0.651z"/>
	<rect x="588.89" y="63.776" fill="#FFFFFF" width="43.602" height="174.082"/>
	<rect x="663.876" fill="#FFFFFF" width="43.601" height="237.858"/>
	<path fill="#FFFFFF" d="M763.659,0.651c-14.315,0-26.027,11.714-26.027,26.357c0,14.316,11.712,25.704,26.027,25.704
		c14.643,0,26.033-11.388,26.033-25.704C789.692,12.365,778.302,0.651,763.659,0.651z"/>
	<rect x="741.859" y="63.776" fill="#FFFFFF" width="43.601" height="174.082"/>
	<path fill="#FFFFFF" d="M947.901,80.046c-10.088-11.389-29.937-19.198-51.409-19.198c-53.368,0-89.155,38.396-89.155,89.807
		c0,54.014,36.116,90.131,89.155,90.131c27.979,0,45.225-11.714,52.061-20.174v17.246h40.67V63.776h-41.321V80.046z
		 M899.095,202.066c-28.636,0-48.156-21.803-48.156-51.411c0-28.96,18.547-51.086,48.156-51.086
		c27.979,0,47.828,21.801,47.828,51.086C946.923,180.264,928.376,202.066,899.095,202.066z"/>
	<path fill="#FFFFFF" d="M1064.21,77.768V63.776h-43.603v174.082h43.603V131.782c0-14.969,5.862-23.102,22.778-23.102h11.062V63.125
		C1080.153,63.125,1070.394,68.982,1064.21,77.768z"/>
</g>
</svg>
