<?xml version="1.0" encoding="utf-8"?>
<!-- Generator: Adobe Illustrator 16.0.0, SVG Export Plug-In . SVG Version: 6.00 Build 0)  -->
<!DOCTYPE svg PUBLIC "-//W3C//DTD SVG 1.1//EN" "http://www.w3.org/Graphics/SVG/1.1/DTD/svg11.dtd">
<svg version="1.1" id="Layer_1" xmlns="http://www.w3.org/2000/svg" xmlns:xlink="http://www.w3.org/1999/xlink" x="0px" y="0px"
	 width="49px" height="30px" viewBox="0.103 0.12 49 30" enable-background="new 0.103 0.12 49 30" xml:space="preserve">
<g>
	<path d="M45.739,0.227H3.464c-1.854,0-3.361,1.508-3.361,3.361v23.061c0,1.854,1.508,3.363,3.361,3.363h42.275
		c1.854,0,3.363-1.51,3.363-3.363V3.588C49.103,1.734,47.593,0.227,45.739,0.227z M48.141,26.649c0,1.326-1.076,2.402-2.401,2.402
		H3.464c-1.323,0-2.401-1.076-2.401-2.402V3.588c0-1.324,1.078-2.402,2.401-2.402h42.275c1.325,0,2.401,1.078,2.401,2.402V26.649z"
		/>
	<path d="M12.323,13.039c-0.737,0-1.221,0.334-1.463,0.807h-0.014v-0.564c0-0.068-0.046-0.114-0.112-0.114H9.996
		c-0.069,0-0.116,0.045-0.116,0.114v5.291c0,0.07,0.047,0.113,0.116,0.113l0,0h0.738c0.067,0,0.112-0.045,0.112-0.115v-3.018
		c0-0.957,0.347-1.614,1.188-1.614c0.321,0,0.6,0.104,0.853,0.266c0.059,0.046,0.115,0.035,0.161-0.022l0.428-0.565
		c0.045-0.057,0.033-0.103-0.023-0.16C13.177,13.2,12.762,13.039,12.323,13.039z"/>
	<path d="M16.407,13.042c-1.051,0-1.856,0.527-2.169,1.484c-0.114,0.334-0.172,0.761-0.172,1.395c0,0.633,0.068,1.035,0.184,1.395
		c0.3,0.955,1.096,1.498,2.216,1.498c0.969,0,1.717-0.391,2.156-0.943c0.044-0.061,0.044-0.117-0.015-0.162l-0.473-0.428
		c-0.057-0.045-0.113-0.033-0.173,0.023c-0.3,0.348-0.76,0.611-1.416,0.611c-0.682,0-1.177-0.324-1.396-0.957
		c-0.057-0.186-0.091-0.369-0.091-0.67c0-0.045,0.021-0.068,0.068-0.068h3.492c0.08,0,0.128-0.047,0.128-0.115
		c0-0.841-0.061-1.222-0.175-1.579C18.263,13.583,17.468,13.042,16.407,13.042z M17.685,15.449h-2.558
		c-0.048,0-0.068-0.022-0.068-0.068c0-0.254,0.021-0.451,0.081-0.624c0.183-0.551,0.644-0.863,1.266-0.863s1.083,0.311,1.269,0.863
		c0.056,0.173,0.08,0.37,0.08,0.624C17.754,15.425,17.729,15.449,17.685,15.449z"/>
	<path d="M22.331,13.167h-0.877c-0.047,0-0.067-0.022-0.067-0.07v-1.556c0-0.069-0.047-0.115-0.115-0.115h-0.738
		c-0.068,0-0.115,0.046-0.115,0.115v1.556c0,0.047-0.021,0.07-0.068,0.07h-0.462c-0.068,0-0.112,0.045-0.112,0.114v0.554
		c0,0.069,0.044,0.117,0.112,0.117h0.462c0.047,0,0.068,0.021,0.068,0.067v3.156c0,1.084,0.415,1.568,1.488,1.568h0.426
		c0.066,0,0.113-0.047,0.113-0.117V17.96c0-0.07-0.047-0.115-0.113-0.115h-0.241c-0.496,0-0.704-0.148-0.704-0.703v-3.123
		c0-0.046,0.021-0.067,0.067-0.067h0.878c0.066,0,0.113-0.048,0.113-0.117v-0.554C22.444,13.211,22.397,13.167,22.331,13.167z"/>
	<path d="M28.151,13.167h-0.736c-0.07,0-0.115,0.045-0.115,0.114v3.273c0,0.83-0.495,1.361-1.246,1.361
		c-0.815,0-1.219-0.518-1.219-1.42V13.28c0-0.068-0.049-0.114-0.115-0.114H23.98c-0.067,0-0.114,0.045-0.114,0.114v3.446
		c0,1.258,0.701,2.088,1.912,2.088c0.716,0,1.223-0.301,1.51-0.764h0.013v0.52c0,0.07,0.047,0.115,0.115,0.115h0.735
		c0.07,0,0.116-0.045,0.116-0.115v-5.29C28.268,13.211,28.222,13.167,28.151,13.167z"/>
	<path d="M32.604,13.039c-0.735,0-1.22,0.334-1.463,0.807h-0.012v-0.564c0-0.068-0.047-0.114-0.116-0.114h-0.735
		c-0.07,0-0.117,0.045-0.117,0.114v5.291c0,0.07,0.047,0.113,0.117,0.113l0,0h0.735c0.069,0,0.116-0.045,0.116-0.115v-3.018
		c0-0.957,0.347-1.614,1.187-1.614c0.321,0,0.598,0.104,0.851,0.266c0.059,0.046,0.117,0.035,0.162-0.022l0.425-0.565
		c0.047-0.057,0.036-0.103-0.021-0.16C33.457,13.2,33.043,13.039,32.604,13.039z"/>
	<path d="M37.41,13.039c-0.749,0-1.277,0.322-1.543,0.75h-0.013V13.28c0-0.068-0.045-0.114-0.114-0.114h-0.737
		c-0.069,0-0.114,0.045-0.114,0.114v5.29c0,0.07,0.045,0.115,0.114,0.115h0.737c0.069,0,0.114-0.045,0.114-0.115v-3.284
		c0-0.818,0.521-1.348,1.269-1.348c0.829,0,1.231,0.52,1.231,1.406v3.225c0,0.07,0.049,0.115,0.115,0.115h0.736
		c0.068,0,0.117-0.045,0.117-0.115v-3.456C39.325,13.859,38.609,13.039,37.41,13.039z"/>
</g>
</svg>
