<?xml version="1.0" encoding="utf-8"?>
<!-- Generator: Adobe Illustrator 16.0.0, SVG Export Plug-In . SVG Version: 6.00 Build 0)  -->
<!DOCTYPE svg PUBLIC "-//W3C//DTD SVG 1.1//EN" "http://www.w3.org/Graphics/SVG/1.1/DTD/svg11.dtd">
<svg version="1.1" id="Layer_1" xmlns="http://www.w3.org/2000/svg" xmlns:xlink="http://www.w3.org/1999/xlink" x="0px" y="0px"
	 width="496.55px" height="156.276px" viewBox="0 0 496.55 156.276" enable-background="new 0 0 496.55 156.276"
	 xml:space="preserve">
<g>
	<path fill="#FFFFFF" d="M75.109,54.312c-9.893,0-22.411,8.279-28.67,25.845V57.342l-1.616-0.606L0,69.254v2.019
		c6.461-0.404,13.326,2.422,13.326,14.133v51.082c0,10.298-5.855,13.729-11.711,14.336v1.816h56.938v-1.816
		c-5.855-0.606-11.711-4.038-11.711-14.336V88.436c2.019-8.077,4.644-12.922,9.692-12.922c6.865,0,9.288,8.278,18.777,8.278
		c8.48,0,14.538-6.259,14.538-14.941C89.849,60.976,84.397,54.312,75.109,54.312z"/>
	<path fill="#FFFFFF" d="M142.345,136.288v-52.9l0.404-26.045l-1.615-0.606L95.503,69.254v2.019
		c6.461-0.404,13.325,2.422,13.325,14.133v50.881c0,10.297-5.653,13.729-11.306,14.335v2.019h56.735v-2.019
		C148.604,150.016,142.345,146.584,142.345,136.288z"/>
	<path fill="#FFFFFF" d="M124.981,46.237c11.105,0,19.787-8.682,19.787-18.979c0-10.903-8.682-19.585-19.787-19.585
		c-10.499,0-19.585,8.682-19.585,19.585C105.396,37.555,114.482,46.237,124.981,46.237z"/>
	<path fill="#FFFFFF" d="M259.895,60.168h-38.968v1.818c12.922,1.009,16.153,16.556,6.259,37.756l-8.48,18.374l-15.749-35.939
		c-5.249-12.316-1.615-19.585,6.058-20.19v-1.818h-58.755v1.818c5.047,2.221,10.499,7.874,16.354,20.594l32.709,71.476h7.874
		L234.454,95.3c11.508-24.632,17.768-31.498,25.44-33.314V60.168z"/>
	<path fill="#FFFFFF" d="M354.186,138.104c-2.423,3.433-5.249,4.846-7.874,4.846c-3.836,0-5.854-3.028-5.854-8.075V88.637
		c0-19.383-13.528-32.103-41.392-32.103c-26.45,0-39.372,9.691-39.372,21.806c0,7.874,5.855,13.124,13.124,13.124
		c5.855,0,12.114-3.231,15.144-11.711c3.836-10.297,1.009-19.989,10.297-19.989c5.653,0,8.479,4.644,8.479,18.778v17.767
		c-41.391,11.105-52.294,23.018-52.294,37.959c0,14.335,11.509,22.008,23.825,22.008c10.298,0,21.604-5.048,30.085-13.729
		c2.826,9.086,9.893,13.326,19.584,13.326c12.115,0,22.21-6.058,28.268-16.354L354.186,138.104z M297.651,142.142
		c-6.662,0-12.315-4.845-12.315-15.546c0-8.884,3.634-19.989,21.401-26.854v31.497c0,2.625,0.202,5.048,0.606,7.27
		C304.113,141.133,301.085,142.142,297.651,142.142z"/>
	<path fill="#FFFFFF" d="M400.239,136.287V0.606L398.625,0l-44.42,11.509v2.019c6.259-0.404,12.518,2.423,12.518,14.335v108.423
		c0,10.298-5.653,13.73-11.104,14.336v2.019h56.533v-2.019C406.499,150.017,400.239,146.584,400.239,136.287z"/>
	<path fill="#FFFFFF" d="M444.055,71.879c0-6.663,5.652-11.105,13.527-11.105c11.509,0,22.21,10.701,27.056,28.267l2.221,0.202
		l6.865-25.239c-9.086-4.644-19.989-7.47-31.901-7.47c-25.642,0-39.978,14.133-39.978,31.093c0,33.517,50.477,32.911,50.477,52.899
		c0,6.865-5.653,12.114-14.739,12.114c-13.325,0-24.835-12.518-28.064-31.699l-2.423-0.202l-8.076,28.672
		c7.874,3.634,22.411,6.864,35.938,6.864c26.248,0,41.594-12.72,41.594-30.892C496.551,91.667,444.055,92.473,444.055,71.879z"/>
</g>
</svg>
